<svg xmlns="http://www.w3.org/2000/svg" version="1.1" xmlns:xlink="http://www.w3.org/1999/xlink" xmlns:svgjs="http://svgjs.com/svgjs" width="1440" height="560" preserveAspectRatio="none" viewBox="0 0 1440 560"><g mask="url(&quot;#SvgjsMask1033&quot;)" fill="none"><rect width="1440" height="560" x="0" y="0" fill="url(#SvgjsLinearGradient1034)"></rect><path d="M 0,225 C 57.6,189.2 172.8,61.8 288,46 C 403.2,30.2 460.8,129 576,146 C 691.2,163 748.8,114 864,131 C 979.2,148 1036.8,253.2 1152,231 C 1267.2,208.8 1382.4,62.2 1440,20L1440 560L0 560z" fill="#184a7e"></path><path d="M 0,417 C 96,427.2 288,482.8 480,468 C 672,453.2 768,325.8 960,343 C 1152,360.2 1344,511.8 1440,554L1440 560L0 560z" fill="#2264ab"></path></g><defs><mask id="SvgjsMask1033"><rect width="1440" height="560" fill="#ffffff"></rect></mask><linearGradient x1="15.28%" y1="-39.29%" x2="84.72%" y2="139.29%" gradientUnits="userSpaceOnUse" id="SvgjsLinearGradient1034"><stop stop-color="#0e2a47" offset="0"></stop><stop stop-color="#00459e" offset="1"></stop></linearGradient></defs></svg>