<svg xmlns="http://www.w3.org/2000/svg" version="1.1" xmlns:xlink="http://www.w3.org/1999/xlink" xmlns:svgjs="http://svgjs.com/svgjs" width="400" height="1000" preserveAspectRatio="none" viewBox="0 0 400 1000"><g mask="url(&quot;#SvgjsMask1489&quot;)" fill="none"><rect width="400" height="1000" x="0" y="0" fill="url(#SvgjsLinearGradient1490)"></rect><path d="M7 1000L1007 0L1067 0L67 1000z" fill="url(#SvgjsLinearGradient1491)"></path><path d="M90 1000L1090 0L1168 0L168 1000z" fill="url(#SvgjsLinearGradient1491)"></path><path d="M181 1000L1181 0L1277 0L277 1000z" fill="url(#SvgjsLinearGradient1491)"></path><path d="M386 1000L-614 0L-638 0L362 1000z" fill="url(#SvgjsLinearGradient1492)"></path><path d="M301 1000L-699 0L-721.5 0L278.5 1000z" fill="url(#SvgjsLinearGradient1492)"></path><path d="M212 1000L-788 0L-887 0L113 1000z" fill="url(#SvgjsLinearGradient1492)"></path><path d="M123.22968284265062 1000L400 723.2296828426506L400 1000z" fill="url(#SvgjsLinearGradient1491)"></path><path d="M0 1000L276.7703171573494 1000L 0 723.2296828426506z" fill="url(#SvgjsLinearGradient1492)"></path></g><defs><mask id="SvgjsMask1489"><rect width="400" height="1000" fill="#ffffff"></rect></mask><linearGradient x1="-37.5%" y1="15%" x2="137.5%" y2="85%" gradientUnits="userSpaceOnUse" id="SvgjsLinearGradient1490"><stop stop-color="rgba(14, 42, 71, 1)" offset="0.46"></stop><stop stop-color="rgba(2, 29, 64, 1)" offset="1"></stop></linearGradient><linearGradient x1="0%" y1="100%" x2="100%" y2="0%" id="SvgjsLinearGradient1491"><stop stop-color="rgba(11, 69, 191, 0.2)" offset="0"></stop><stop stop-opacity="0" stop-color="rgba(11, 69, 191, 0.2)" offset="0.66"></stop></linearGradient><linearGradient x1="100%" y1="100%" x2="0%" y2="0%" id="SvgjsLinearGradient1492"><stop stop-color="rgba(11, 69, 191, 0.2)" offset="0"></stop><stop stop-opacity="0" stop-color="rgba(11, 69, 191, 0.2)" offset="0.66"></stop></linearGradient></defs></svg>